<?xml version="1.0" encoding="UTF-8"?>
<svg xmlns="http://www.w3.org/2000/svg" xmlns:xlink="http://www.w3.org/1999/xlink" width="313.5pt" height="117.749996pt" viewBox="0 0 313.5 117.749996" version="1.2">
<g id="surface1">
<path style=" stroke:none;fill-rule:nonzero;fill:rgb(0%,0%,0%);fill-opacity:1;" d="M 19.425781 38.980469 L 19.425781 21.292969 L 57.140625 21.292969 L 57.140625 4.882812 L 2.164062 4.882812 L 2.164062 88.308594 L 19.425781 88.308594 L 19.425781 55.386719 L 53.199219 55.386719 L 53.199219 38.980469 Z M 19.425781 38.980469 "/>
<path style=" stroke:none;fill-rule:nonzero;fill:rgb(0%,0%,0%);fill-opacity:1;" d="M 60.4375 59.964844 C 60.4375 77.121094 74.183594 89.585938 91.441406 89.585938 C 108.59375 89.585938 122.550781 76.800781 122.550781 59.644531 C 122.550781 42.707031 108.808594 30.136719 91.65625 30.136719 C 74.394531 30.136719 60.4375 43.027344 60.4375 59.964844 Z M 77.488281 59.753906 C 77.488281 51.230469 83.664062 45.265625 91.441406 45.265625 C 99.21875 45.265625 105.507812 51.230469 105.507812 59.753906 C 105.507812 68.382812 99.324219 74.351562 91.546875 74.351562 C 83.773438 74.351562 77.488281 68.382812 77.488281 59.753906 Z M 77.488281 59.753906 "/>
<path style=" stroke:none;fill-rule:nonzero;fill:rgb(0%,0%,0%);fill-opacity:1;" d="M 165.804688 56.769531 L 165.804688 88.308594 L 182.316406 88.308594 L 182.316406 52.9375 C 182.316406 41.214844 176.246094 30.347656 161.753906 30.347656 C 159.519531 30.347656 150.035156 31.203125 145.664062 38.871094 L 145.5625 38.871094 L 145.5625 31.414062 L 129.046875 31.414062 L 129.046875 88.308594 L 145.664062 88.308594 L 145.664062 56.769531 C 145.664062 50.914062 148.863281 45.691406 155.894531 45.691406 C 162.714844 45.691406 165.804688 50.375 165.804688 56.769531 Z M 165.804688 56.769531 "/>
<path style=" stroke:none;fill-rule:nonzero;fill:rgb(0%,0%,0%);fill-opacity:1;" d="M 205.21875 64.441406 L 246.554688 64.441406 C 246.769531 62.523438 246.769531 60.5 246.769531 58.472656 C 246.769531 41.644531 235.371094 30.03125 218.429688 30.03125 C 202.023438 30.03125 188.277344 43.347656 188.277344 59.753906 C 188.277344 77.441406 202.234375 89.585938 219.496094 89.585938 C 231 89.585938 239.207031 85.324219 244 76.695312 L 231.960938 68.8125 C 229.402344 73.070312 224.078125 75.628906 219.28125 75.628906 C 212.355469 75.628906 206.285156 71.578125 205.21875 64.441406 Z M 230.148438 53.46875 L 205.644531 53.46875 C 206.285156 49.742188 210.546875 43.558594 218.003906 43.558594 C 226.3125 43.558594 229.828125 49.3125 230.148438 53.46875 Z M 230.148438 53.46875 "/>
<path style=" stroke:none;fill-rule:nonzero;fill:rgb(0%,0%,0%);fill-opacity:1;" d="M 249.75 59.964844 C 249.75 77.121094 263.492188 89.585938 280.753906 89.585938 C 297.902344 89.585938 311.859375 76.800781 311.859375 59.644531 C 311.859375 42.707031 298.117188 30.136719 280.964844 30.136719 C 263.703125 30.136719 249.75 43.027344 249.75 59.964844 Z M 266.796875 59.753906 C 266.796875 51.230469 272.972656 45.265625 280.753906 45.265625 C 288.53125 45.265625 294.816406 51.230469 294.816406 59.753906 C 294.816406 68.382812 288.632812 74.351562 280.855469 74.351562 C 273.082031 74.351562 266.796875 68.382812 266.796875 59.753906 Z M 266.796875 59.753906 "/>
<path style=" stroke:none;fill-rule:nonzero;fill:rgb(0%,0%,0%);fill-opacity:1;" d="M 9.335938 108.699219 C 9.335938 106.636719 7.863281 104.613281 5.609375 104.613281 C 4.125 104.613281 3.203125 105.445312 2.546875 106.457031 L 2.546875 100.589844 L 1.386719 100.589844 L 1.386719 112.679688 L 2.535156 112.679688 L 2.535156 111.015625 C 3.171875 112.054688 4.105469 112.796875 5.609375 112.796875 C 7.863281 112.796875 9.335938 110.839844 9.335938 108.699219 Z M 5.371094 111.773438 C 3.691406 111.773438 2.535156 110.316406 2.535156 108.683594 C 2.535156 107.09375 3.734375 105.640625 5.371094 105.640625 C 7.121094 105.640625 8.148438 107.078125 8.148438 108.730469 C 8.148438 110.410156 7.121094 111.773438 5.371094 111.773438 Z M 5.371094 111.773438 "/>
<path style=" stroke:none;fill-rule:nonzero;fill:rgb(0%,0%,0%);fill-opacity:1;" d="M 13.507812 104.75 L 12.359375 104.75 L 12.359375 109.652344 C 12.359375 111.507812 13.414062 112.828125 15.359375 112.828125 C 16.519531 112.828125 17.457031 112.308594 18.078125 111.222656 L 18.078125 112.679688 L 19.207031 112.679688 L 19.207031 104.75 L 18.0625 104.75 L 18.0625 109.277344 C 18.0625 110.6875 17.082031 111.773438 15.703125 111.773438 C 14.230469 111.773438 13.507812 110.78125 13.507812 109.367188 Z M 13.507812 104.75 "/>
<path style=" stroke:none;fill-rule:nonzero;fill:rgb(0%,0%,0%);fill-opacity:1;" d="M 21.90625 104.75 L 25.515625 112.144531 L 23.464844 116.585938 L 24.714844 116.585938 L 30.148438 104.75 L 28.902344 104.75 L 26.152344 110.882812 L 23.242188 104.75 Z M 21.90625 104.75 "/>
<path style=" stroke:none;fill-rule:nonzero;fill:rgb(0%,0%,0%);fill-opacity:1;" d="M 32.488281 111.742188 C 32.488281 112.335938 32.964844 112.8125 33.558594 112.8125 C 34.140625 112.8125 34.613281 112.335938 34.613281 111.742188 C 34.613281 111.148438 34.140625 110.675781 33.558594 110.675781 C 32.964844 110.675781 32.488281 111.148438 32.488281 111.742188 Z M 32.488281 111.742188 "/>
<path style=" stroke:none;fill-rule:nonzero;fill:rgb(0%,0%,0%);fill-opacity:1;" d="M 48.46875 110.421875 C 48.46875 109.902344 48.246094 109.457031 47.902344 109.117188 C 47.429688 108.625 46.789062 108.34375 45.824219 108.136719 C 44.355469 107.824219 43.96875 107.542969 43.96875 106.886719 C 43.96875 106.203125 44.710938 105.640625 45.574219 105.640625 C 46.566406 105.640625 47.074219 106.21875 47.429688 106.976562 L 48.378906 106.457031 C 47.949219 105.476562 47.144531 104.613281 45.574219 104.613281 C 44.234375 104.613281 42.8125 105.535156 42.8125 106.976562 C 42.8125 107.421875 42.957031 107.839844 43.242188 108.164062 C 43.6875 108.667969 44.25 108.90625 45.304688 109.144531 C 46.714844 109.472656 47.296875 109.796875 47.296875 110.496094 C 47.296875 111.328125 46.464844 111.789062 45.601562 111.789062 C 44.414062 111.789062 43.835938 111.03125 43.464844 110.246094 L 42.515625 110.765625 C 43.0625 111.996094 44.011719 112.8125 45.617188 112.8125 C 47.25 112.8125 48.46875 111.804688 48.46875 110.421875 Z M 48.46875 110.421875 "/>
<path style=" stroke:none;fill-rule:nonzero;fill:rgb(0%,0%,0%);fill-opacity:1;" d="M 58.609375 109.070312 C 58.625 108.953125 58.625 108.820312 58.625 108.683594 C 58.625 106.367188 57.332031 104.613281 54.882812 104.613281 C 52.65625 104.613281 51.019531 106.546875 51.019531 108.699219 C 51.019531 110.984375 52.742188 112.8125 55.042969 112.8125 C 56.441406 112.8125 57.71875 112.085938 58.402344 110.765625 L 57.542969 110.199219 C 57.09375 111.105469 56.191406 111.789062 55.03125 111.789062 C 53.484375 111.789062 52.285156 110.613281 52.191406 109.070312 Z M 52.207031 108.089844 C 52.402344 106.769531 53.5 105.625 54.882812 105.625 C 56.394531 105.625 57.304688 106.652344 57.449219 108.089844 Z M 52.207031 108.089844 "/>
<path style=" stroke:none;fill-rule:nonzero;fill:rgb(0%,0%,0%);fill-opacity:1;" d="M 62.851562 112.679688 L 62.851562 100.574219 L 61.679688 100.574219 L 61.679688 112.679688 Z M 62.851562 112.679688 "/>
<path style=" stroke:none;fill-rule:nonzero;fill:rgb(0%,0%,0%);fill-opacity:1;" d="M 67.707031 112.679688 L 67.707031 100.574219 L 66.53125 100.574219 L 66.53125 112.679688 Z M 67.707031 112.679688 "/>
<path style=" stroke:none;fill-rule:nonzero;fill:rgb(0%,0%,0%);fill-opacity:1;" d="M 71.089844 111.742188 C 71.089844 112.335938 71.566406 112.8125 72.160156 112.8125 C 72.742188 112.8125 73.214844 112.335938 73.214844 111.742188 C 73.214844 111.148438 72.742188 110.675781 72.160156 110.675781 C 71.566406 110.675781 71.089844 111.148438 71.089844 111.742188 Z M 71.089844 111.742188 "/>
<path style=" stroke:none;fill-rule:nonzero;fill:rgb(0%,0%,0%);fill-opacity:1;" d="M 82.957031 104.75 L 81.8125 104.75 L 81.8125 112.679688 L 82.96875 112.679688 L 82.96875 108.800781 C 82.96875 107.390625 83.578125 105.847656 85.449219 105.847656 C 85.601562 105.847656 85.746094 105.863281 85.898438 105.878906 L 85.898438 104.644531 C 85.804688 104.632812 85.582031 104.632812 85.507812 104.632812 C 84.605469 104.632812 83.550781 105.089844 82.957031 106.320312 Z M 82.957031 104.75 "/>
<path style=" stroke:none;fill-rule:nonzero;fill:rgb(0%,0%,0%);fill-opacity:1;" d="M 95.53125 109.070312 C 95.546875 108.953125 95.546875 108.820312 95.546875 108.683594 C 95.546875 106.367188 94.253906 104.613281 91.804688 104.613281 C 89.578125 104.613281 87.945312 106.546875 87.945312 108.699219 C 87.945312 110.984375 89.667969 112.8125 91.96875 112.8125 C 93.363281 112.8125 94.640625 112.085938 95.328125 110.765625 L 94.464844 110.199219 C 94.015625 111.105469 93.113281 111.789062 91.953125 111.789062 C 90.40625 111.789062 89.207031 110.613281 89.113281 109.070312 Z M 89.132812 108.089844 C 89.324219 106.769531 90.425781 105.625 91.804688 105.625 C 93.320312 105.625 94.226562 106.652344 94.375 108.089844 Z M 89.132812 108.089844 "/>
<path style=" stroke:none;fill-rule:nonzero;fill:rgb(0%,0%,0%);fill-opacity:1;" d="M 106.550781 108.699219 C 106.550781 106.636719 105.078125 104.613281 102.820312 104.613281 C 101.320312 104.613281 100.382812 105.476562 99.746094 106.472656 L 99.746094 104.75 L 98.601562 104.75 L 98.601562 116.585938 L 99.761719 116.585938 L 99.761719 111.042969 C 100.398438 112.054688 101.347656 112.796875 102.820312 112.796875 C 105.078125 112.796875 106.550781 110.839844 106.550781 108.699219 Z M 102.582031 111.773438 C 100.90625 111.773438 99.746094 110.316406 99.746094 108.683594 C 99.746094 107.09375 100.949219 105.640625 102.582031 105.640625 C 104.335938 105.640625 105.359375 107.078125 105.359375 108.730469 C 105.359375 110.410156 104.335938 111.773438 102.582031 111.773438 Z M 102.582031 111.773438 "/>
<path style=" stroke:none;fill-rule:nonzero;fill:rgb(0%,0%,0%);fill-opacity:1;" d="M 114.445312 108.105469 L 112.246094 108.105469 C 110.835938 108.105469 109.113281 108.667969 109.113281 110.390625 L 109.113281 110.484375 C 109.113281 111.816406 110.167969 112.8125 111.773438 112.8125 C 112.960938 112.8125 113.824219 112.265625 114.445312 111.28125 L 114.457031 111.28125 L 114.457031 112.679688 L 115.589844 112.679688 L 115.589844 107.554688 C 115.589844 107.304688 115.527344 106.679688 115.351562 106.25 C 114.964844 105.371094 114.132812 104.613281 112.453125 104.613281 C 110.847656 104.613281 109.753906 105.402344 109.199219 106.664062 L 110.152344 107.199219 C 110.539062 106.367188 111.207031 105.640625 112.425781 105.640625 C 113.746094 105.640625 114.445312 106.292969 114.445312 107.570312 Z M 114.445312 109.058594 L 114.445312 109.335938 C 114.445312 110.792969 113.390625 111.789062 111.976562 111.789062 C 111.027344 111.789062 110.269531 111.28125 110.269531 110.390625 C 110.269531 109.324219 111.382812 109.058594 112.234375 109.058594 Z M 114.445312 109.058594 "/>
<path style=" stroke:none;fill-rule:nonzero;fill:rgb(0%,0%,0%);fill-opacity:1;" d="M 118.882812 101.914062 C 118.882812 102.390625 119.265625 102.773438 119.742188 102.773438 C 120.234375 102.773438 120.617188 102.390625 120.617188 101.914062 C 120.617188 101.421875 120.234375 101.035156 119.742188 101.035156 C 119.265625 101.035156 118.882812 101.421875 118.882812 101.914062 Z M 120.335938 112.679688 L 120.335938 104.75 L 119.164062 104.75 L 119.164062 112.679688 Z M 120.335938 112.679688 "/>
<path style=" stroke:none;fill-rule:nonzero;fill:rgb(0%,0%,0%);fill-opacity:1;" d="M 125.164062 104.75 L 124.015625 104.75 L 124.015625 112.679688 L 125.175781 112.679688 L 125.175781 108.800781 C 125.175781 107.390625 125.785156 105.847656 127.65625 105.847656 C 127.808594 105.847656 127.953125 105.863281 128.105469 105.878906 L 128.105469 104.644531 C 128.011719 104.632812 127.789062 104.632812 127.714844 104.632812 C 126.8125 104.632812 125.757812 105.089844 125.164062 106.320312 Z M 125.164062 104.75 "/>
<path style=" stroke:none;fill-rule:nonzero;fill:rgb(0%,0%,0%);fill-opacity:1;" d="M 130.429688 111.742188 C 130.429688 112.335938 130.90625 112.8125 131.5 112.8125 C 132.082031 112.8125 132.554688 112.335938 132.554688 111.742188 C 132.554688 111.148438 132.082031 110.675781 131.5 110.675781 C 130.90625 110.675781 130.429688 111.148438 130.429688 111.742188 Z M 130.429688 111.742188 "/>
</g>
</svg>
